<svg width="244" height="39" viewBox="0 0 244 39" fill="none" xmlns="http://www.w3.org/2000/svg">
<g clip-path="url(#clip0)">
<path d="M121.924 15.6914H123.683V18.7383H123.759C124.907 16.2246 126.13 15.6914 129.037 15.6914V17.291C124.754 17.291 123.912 19.5762 123.912 23.2324V31.2305H121.924V15.6914Z" fill="white"/>
<path d="M77.9423 20.1855C77.8658 17.8242 76.0301 16.834 73.8884 16.834C72.2056 16.834 70.2169 17.5195 70.2169 19.5C70.2169 21.1758 72.1292 21.7852 73.4295 22.0898L75.9536 22.623C78.0953 22.9277 80.39 24.2227 80.39 26.8887C80.39 30.2402 77.0244 31.5352 74.1944 31.5352C70.5994 31.5352 68.1517 29.8594 67.8458 26.0508H69.758C69.911 28.5645 71.8232 29.9355 74.3473 29.9355C76.1066 29.9355 78.5542 29.1738 78.5542 26.9648C78.5542 25.1367 76.8715 24.6035 75.1887 24.1465L72.7411 23.6133C70.2934 22.9277 68.3812 22.0898 68.3812 19.5C68.3812 16.377 71.5172 15.1582 74.1944 15.1582C77.3304 15.1582 79.7781 16.7578 79.8545 20.1094L77.9423 20.1855Z" fill="white"/>
<path d="M82.3787 15.6914H84.1379V18.2812H84.2144C85.2088 16.4531 86.815 15.2344 89.3392 15.2344C91.4044 15.2344 93.2401 16.2246 93.7755 18.2812C94.6934 16.2246 96.6821 15.2344 98.7473 15.2344C102.113 15.2344 103.872 16.9863 103.872 20.6426V31.1543H101.96V20.7188C101.96 18.2051 100.965 16.7578 98.2884 16.7578C94.9994 16.7578 94.0815 19.4238 94.0815 22.3184V31.0781H92.1693V20.6426C92.1693 18.5098 91.3279 16.834 88.9567 16.834C85.6677 16.834 84.3674 19.2715 84.2909 22.5469V31.1543H82.3787V15.6914Z" fill="white"/>
<path d="M159.327 15.6914H161.239V18.3574H161.315C162.004 16.5293 164.069 15.2344 166.287 15.2344C170.647 15.2344 171.947 17.5195 171.947 21.1758V31.1543H170.035V21.4805C170.035 18.8145 169.194 16.834 166.058 16.834C163.075 16.834 161.239 19.1191 161.162 22.166V31.1543H159.25L159.327 15.6914Z" fill="white"/>
<path d="M187.704 29.8594C187.704 34.5059 185.868 37.3242 180.82 37.3242C177.684 37.3242 174.624 35.9531 174.395 32.6777H176.307C176.69 34.9629 178.755 35.8008 180.82 35.8008C184.339 35.8008 185.792 33.7441 185.792 29.9355V27.8027H185.715C184.874 29.707 183.038 31.0019 180.744 31.0019C175.772 31.0019 173.707 27.498 173.707 23.0801C173.707 18.8145 176.231 15.3105 180.744 15.3105C183.038 15.3105 184.95 16.6816 185.715 18.4336H185.792V15.7676H187.704V29.8594ZM185.792 23.2324C185.792 20.1855 184.339 16.834 180.82 16.834C177.225 16.834 175.695 20.0332 175.695 23.2324C175.695 26.3555 177.302 29.4023 180.82 29.4023C184.109 29.3262 185.792 26.3555 185.792 23.2324Z" fill="white"/>
<path d="M190.611 11.3496H192.523V13.2539H190.611V11.3496ZM190.611 15.6914H192.523V31.1543H190.611V15.6914Z" fill="white"/>
<path d="M195.353 15.6914H197.265V18.3574H197.342C198.03 16.5293 200.095 15.2344 202.313 15.2344C206.673 15.2344 207.974 17.5195 207.974 21.1758V31.1543H206.061V21.4805C206.061 18.8145 205.22 16.834 202.084 16.834C199.101 16.834 197.265 19.1191 197.189 22.166V31.1543H195.353V15.6914Z" fill="white"/>
<path d="M211.645 23.918C211.645 26.6602 213.098 30.0117 216.77 30.0117C219.524 30.0117 220.977 28.4883 221.589 26.127H223.501C222.66 29.6309 220.671 31.6113 216.77 31.6113C211.798 31.6113 209.733 27.8027 209.733 23.4609C209.733 19.3477 211.798 15.3105 216.77 15.3105C221.742 15.3105 223.73 19.6523 223.577 23.9941H211.645V23.918ZM221.742 22.3184C221.665 19.5 219.906 16.834 216.77 16.834C213.634 16.834 211.951 19.5 211.645 22.3184H221.742Z" fill="white"/>
<path d="M234.974 20.1855C234.898 17.8242 233.062 16.834 230.92 16.834C229.238 16.834 227.249 17.5195 227.249 19.5C227.249 21.1758 229.161 21.7852 230.461 22.0898L232.986 22.623C235.127 22.9277 237.422 24.2227 237.422 26.8887C237.422 30.2402 234.056 31.5352 231.226 31.5352C227.631 31.5352 225.184 29.8594 224.878 26.0508H226.79C226.943 28.5645 228.855 29.9355 231.379 29.9355C233.139 29.9355 235.586 29.1738 235.586 26.9648C235.586 25.1367 233.903 24.6035 232.221 24.1465L229.773 23.6133C227.325 22.9277 225.413 22.0898 225.413 19.5C225.413 16.377 228.549 15.1582 231.226 15.1582C234.362 15.1582 236.81 16.7578 236.887 20.1094L234.974 20.1855Z" fill="white"/>
<path d="M106.473 20.4141C106.626 16.7578 109.226 15.2344 112.745 15.2344C115.498 15.2344 118.482 16.0723 118.482 20.1855V28.4121C118.482 29.0977 118.787 29.707 119.552 29.707C119.782 29.707 119.935 29.707 120.164 29.707V31.3066C120.164 31.3066 119.399 31.3066 118.94 31.3066C117.028 31.3066 116.722 30.0879 116.722 28.4121H116.646C115.345 30.3926 113.969 31.5352 110.986 31.5352C108.156 31.5352 105.784 30.0879 105.784 27.041C105.784 22.6992 110.068 22.5469 114.122 22.0898C115.651 21.9375 116.569 21.709 116.569 19.957C116.569 17.4434 114.734 16.7578 112.515 16.7578C110.144 16.7578 108.385 17.8242 108.385 20.3379L106.473 20.4141ZM116.646 22.6992C116.34 23.1562 115.498 23.3086 114.963 23.3848C111.75 23.918 107.773 23.918 107.773 26.9648C107.773 28.8691 109.456 30.0117 111.215 30.0117C114.122 30.0117 116.646 28.1836 116.646 25.1367V22.6992Z" fill="white"/>
<path d="M134.621 15.6914H137.757V17.291H134.621V27.7266C134.621 28.9453 134.774 29.707 136.15 29.7832C136.686 29.7832 137.145 29.7832 137.757 29.7832V31.3828C137.221 31.3828 136.609 31.3828 136.074 31.3828C133.55 31.3828 132.708 30.5449 132.708 27.8789V17.2148H130.031V15.6152H132.708V11.2734H134.621V15.6914Z" fill="white"/>
<path d="M145.406 23.918C145.406 26.6602 146.859 30.0117 150.53 30.0117C153.284 30.0117 154.737 28.4883 155.349 26.127H157.261C156.42 29.6309 154.431 31.6113 150.53 31.6113C145.559 31.6113 143.493 27.8027 143.493 23.4609C143.493 19.3477 145.559 15.3105 150.53 15.3105C155.502 15.3105 157.491 19.6523 157.338 23.9941H145.406V23.918ZM155.426 22.3184C155.349 19.5 153.59 16.834 150.454 16.834C147.318 16.834 145.635 19.5 145.329 22.3184H155.426Z" fill="white"/>
<path d="M239.946 9.90234H238.952V12.5684H238.416V9.90234H237.422V9.52148H239.87L239.946 9.90234ZM244 12.5684H243.465V9.97852L242.47 12.5684H242.164L241.17 9.97852V12.5684H240.634V9.44531H241.399L242.317 11.8066L243.235 9.44531H244V12.5684Z" fill="white"/>
<path d="M41.6101 39C35.7969 39 31.1311 36.5625 28.4539 32.2207C26.3122 37.1719 20.1166 39 14.7624 39C5.88967 39 0.535443 34.7344 0.458954 27.6504C0.458954 27.498 0.535443 27.3457 0.611932 27.2695C0.688421 27.1934 0.841399 27.1172 0.994377 27.1172H7.87839C8.18435 27.1172 8.41381 27.3457 8.41381 27.6504C8.79626 31.6875 12.1618 32.5254 14.9154 32.5254C16.5216 32.5254 19.2753 32.2969 20.5756 30.9258C21.0345 30.3926 21.264 29.7832 21.264 29.0215C21.111 26.3555 17.669 25.6699 13.6916 24.832C13.0032 24.6797 12.2383 24.5273 11.4734 24.375C6.04265 23.2324 1.07087 21.252 1.07087 14.7012C1.07087 7.76953 8.33732 5.25586 14.6094 5.25586C21.7229 5.25586 26.3887 8.22656 27.842 13.5586C30.4427 8.45508 35.4144 5.25586 41.4571 5.25586C45.8169 5.25586 49.7944 7.00781 52.6245 10.207C55.837 13.7871 57.2903 18.8145 56.6784 23.9941C56.6784 24.2988 56.3724 24.4512 56.143 24.4512H33.8082C34.0376 30.3926 37.9386 32.5254 41.6101 32.5254C45.2815 32.5254 47.4997 31.002 48.647 27.7266C48.7235 27.498 48.953 27.3457 49.1825 27.3457H55.684C55.837 27.3457 55.99 27.4219 56.143 27.5742C56.2195 27.7266 56.2959 27.8789 56.2195 28.0312C54.7662 34.7344 49.0295 39 41.6101 39ZM28.301 30.3164C28.5304 30.3164 28.6834 30.4688 28.7599 30.6211C31.1311 35.3438 35.7204 37.9336 41.6101 37.9336C48.1881 37.9336 53.3894 34.2773 54.9956 28.4883H49.5649C48.1881 31.916 45.5875 33.668 41.6101 33.668C36.1793 33.668 32.7373 29.8594 32.7373 23.9941C32.7373 23.6895 32.9668 23.4609 33.2727 23.4609H55.6075C56.0665 18.8145 54.6897 14.3203 51.7831 11.0449C49.1825 8.07422 45.511 6.47461 41.4571 6.47461C34.2671 6.47461 27.0006 11.8828 27.0006 22.2422C27.0006 22.3945 27.0006 22.623 27.0006 22.7754V22.8516C27.0006 23.0801 26.8477 23.3086 26.6947 23.3848C26.4652 23.4609 26.2358 23.4609 26.0828 23.3086C24.1706 21.4805 21.1875 20.6426 18.5104 20.0332C17.822 19.8809 17.0571 19.7285 16.3687 19.5762C12.0088 18.5859 7.95488 17.748 7.95488 14.3965C7.95488 10.9688 12.6972 10.6641 14.1505 10.6641C17.8985 10.6641 20.1931 12.0352 20.8815 14.7773H26.9242C25.6238 7.23633 17.8985 6.39844 14.6094 6.39844C8.87275 6.39844 2.14171 8.60742 2.14171 14.7012C2.14171 20.1855 5.96616 22.0898 11.7028 23.3086C12.4677 23.4609 13.1561 23.6133 13.921 23.7656C18.1279 24.6797 22.1818 25.4414 22.3348 28.9453C22.4113 30.0117 22.0289 30.9258 21.3405 31.6875C19.8107 33.2871 16.9806 33.5918 14.8389 33.5918C10.479 33.5918 7.87839 31.6875 7.34297 28.1836H1.5298C1.91225 34.2773 6.80754 37.8574 14.7624 37.8574C20.1166 37.8574 26.3887 35.9531 27.842 30.6973C27.842 30.5449 27.995 30.3926 28.301 30.3164ZM14.1505 11.7305C13.3091 11.7305 9.02572 11.8828 9.02572 14.3203C9.02572 16.7578 12.4677 17.4434 16.5216 18.2812C17.2101 18.4336 17.9749 18.5859 18.6633 18.7383C21.111 19.2715 23.7881 20.0332 25.8533 21.5566C25.9298 19.5 26.2358 17.5957 26.8477 15.8438H20.4226C20.1931 15.8438 19.9637 15.6914 19.8872 15.3867C19.4282 12.9492 17.516 11.7305 14.1505 11.7305ZM49.259 19.3477H33.2727C33.1198 19.3477 32.9668 19.2715 32.8903 19.1953C32.8138 19.1191 32.7373 18.9668 32.7373 18.8145C32.8903 13.8633 36.3323 10.6641 41.4571 10.6641C46.1994 10.6641 49.5649 13.9395 49.7944 18.7383C49.7944 18.8906 49.7179 19.043 49.6414 19.1191C49.5649 19.2715 49.4119 19.3477 49.259 19.3477ZM33.8082 18.2051H48.647C48.1881 14.3203 45.358 11.7305 41.4571 11.7305C37.1737 11.7305 34.2671 14.3203 33.8082 18.2051Z" fill="url(#paint0_linear)"/>
</g>
<defs>
<linearGradient id="paint0_linear" x1="56.8154" y1="22.128" x2="0.458954" y2="22.128" gradientUnits="userSpaceOnUse">
<stop stop-color="white"/>
<stop offset="0.1379" stop-color="#FBFEFE"/>
<stop offset="0.2651" stop-color="#F0FAF9"/>
<stop offset="0.3882" stop-color="#DDF5F2"/>
<stop offset="0.5087" stop-color="#C3ECE7"/>
<stop offset="0.6273" stop-color="#A1E2DA"/>
<stop offset="0.7446" stop-color="#77D5C9"/>
<stop offset="0.8607" stop-color="#46C6B6"/>
<stop offset="0.9732" stop-color="#0EB4A0"/>
<stop offset="1" stop-color="#00B09A"/>
</linearGradient>
<clipPath id="clip0">
<rect width="244" height="39" fill="white"/>
</clipPath>
</defs>
</svg>
